<?xml version="1.0" encoding="UTF-8"?>
<svg version="1.1" xmlns="http://www.w3.org/2000/svg" width="2337" height="483">
<path d="M0 0 C1.42202599 -0.00679667 1.42202599 -0.00679667 2.87277979 -0.01373065 C6.02204374 -0.02630323 9.17113317 -0.02475889 12.32041931 -0.02310181 C14.58985107 -0.02909162 16.85928081 -0.03589821 19.12870789 -0.04345703 C25.2757663 -0.06108072 31.42276897 -0.06581096 37.56985021 -0.0670886 C41.41707067 -0.06851313 45.2642771 -0.0727885 49.11149406 -0.07808304 C61.85995277 -0.09562023 74.60836534 -0.10492477 87.35683317 -0.10342209 C88.38560763 -0.10330222 88.38560763 -0.10330222 89.43516541 -0.10317993 C90.46521383 -0.10305729 90.46521383 -0.10305729 91.51607131 -0.10293217 C102.6296681 -0.10212033 113.74312901 -0.12123653 124.85668654 -0.14945666 C136.30073789 -0.1782838 147.74469567 -0.19162646 159.18878931 -0.19026911 C165.60054167 -0.18976113 172.01214025 -0.1953534 178.42386055 -0.21662521 C184.46094824 -0.23610799 190.49773707 -0.23606367 196.53483582 -0.22159195 C198.73852415 -0.21951498 200.94223169 -0.22413756 203.14588737 -0.23631287 C232.86554548 -0.3897526 259.65574352 7.93287508 281.16783142 29.20492554 C302.35118985 51.09671103 309.80202823 77.60654493 309.37876892 107.31430054 C309.10575568 115.76406042 307.74226183 123.27289673 305.06626892 131.26742554 C304.65376892 132.52039429 304.24126892 133.77336304 303.81626892 135.06430054 C294.99866847 160.01205095 276.56270995 179.4873655 253.05552673 191.35189819 C240.49613674 197.13217709 226.95326223 200.5842878 213.13253784 200.53485107 C211.71051185 200.54164774 211.71051185 200.54164774 210.25975806 200.54858172 C207.1104941 200.56115431 203.96140467 200.55960997 200.81211853 200.55795288 C198.54268677 200.5639427 196.27325704 200.57074929 194.00382996 200.57830811 C187.85677155 200.59593179 181.70976887 200.60066204 175.56268764 200.60193968 C171.71546717 200.6033642 167.86826074 200.60763957 164.02104378 200.61293411 C151.27258507 200.6304713 138.52417251 200.63977584 125.77570467 200.63827316 C125.08985504 200.63819325 124.4040054 200.63811334 123.69737244 200.63803101 C122.66732401 200.63790836 122.66732401 200.63790836 121.61646653 200.63778324 C110.50286975 200.6369714 99.38940883 200.6560876 88.2758513 200.68430774 C76.83179996 200.71313488 65.38784218 200.72647753 53.94374853 200.72512019 C47.53199617 200.7246122 41.12039759 200.73020448 34.70867729 200.75147629 C28.67158961 200.77095907 22.63480077 200.77091474 16.59770203 200.75644302 C14.39401369 200.75436606 12.19030615 200.75898864 9.98665047 200.77116394 C-19.73300764 200.92460368 -46.52320568 192.60197599 -68.03529358 171.32992554 C-89.21865201 149.43814004 -96.66949039 122.92830614 -96.24623108 93.22055054 C-95.97321784 84.77079066 -94.60972398 77.26195434 -91.93373108 69.26742554 C-91.52123108 68.01445679 -91.10873108 66.76148804 -90.68373108 65.47055054 C-81.86613062 40.52280012 -63.43017211 21.04748557 -39.92298889 9.18295288 C-27.36359889 3.40267398 -13.82072439 -0.04943672 0 0 Z " fill="#EBE6E3" transform="translate(2027.9337310791016,41.732574462890625)"/>
<path d="M0 0 C20.52989905 17.72081264 34.85370306 43.35196573 38.57373047 70.35839844 C38.68330078 71.06867188 38.79287109 71.77894531 38.90576172 72.51074219 C43.08205934 105.08586365 35.18042293 137.98389865 15.21435547 164.13916016 C-3.30557577 187.70246553 -29.27619611 203.51248749 -59.27905273 207.34277344 C-81.2945656 209.8475186 -103.01273733 207.84555383 -123.30126953 198.54589844 C-123.97867188 198.23894043 -124.65607422 197.93198242 -125.35400391 197.61572266 C-131.21798577 194.79099968 -135.02317468 191.56080554 -140.42626953 187.35839844 C-140.75626953 219.69839844 -141.08626953 252.03839844 -141.42626953 285.35839844 C-162.21626953 285.35839844 -183.00626953 285.35839844 -204.42626953 285.35839844 C-204.42626953 183.71839844 -204.42626953 82.07839844 -204.42626953 -22.64160156 C-184.95626953 -22.64160156 -165.48626953 -22.64160156 -145.42626953 -22.64160156 C-144.93126953 -12.24660156 -144.93126953 -12.24660156 -144.42626953 -1.64160156 C-143.39501953 -2.77597656 -142.36376953 -3.91035156 -141.30126953 -5.07910156 C-131.4330265 -14.86078105 -119.57393243 -20.63622063 -106.42626953 -24.64160156 C-105.33958984 -24.98191406 -104.25291016 -25.32222656 -103.13330078 -25.67285156 C-66.78272831 -34.87768586 -28.07907232 -23.7585844 0 0 Z M-127.07617188 46.75195312 C-138.57560952 60.43482829 -142.7263787 78.81758129 -141.42626953 96.35839844 C-139.49859861 114.66172925 -132.03548359 129.93572909 -117.55126953 141.67089844 C-103.95285251 151.19518655 -88.30479962 153.05091733 -72.15673828 150.92871094 C-56.77688253 147.59332053 -43.6998081 139.20074199 -34.99267578 126.06933594 C-25.32236003 109.33317851 -23.50841521 91.05216049 -27.42626953 72.35839844 C-31.60360407 57.01351627 -40.52509271 44.11308564 -54.05126953 35.63574219 C-78.14402994 22.67795822 -108.33469591 26.59858062 -127.07617188 46.75195312 Z " fill="#002E50" transform="translate(781.42626953125,156.6416015625)"/>
<path d="M0 0 C1.93226149 1.52207514 3.84942833 3.06353448 5.75 4.625 C7.10158203 5.71167969 7.10158203 5.71167969 8.48046875 6.8203125 C30.15084844 25.2698421 44.36964484 53.27063607 46.93026733 81.62084961 C47.21909788 86.37183213 47.2305061 91.11701778 47.1875 95.875 C47.18293793 96.95284256 47.18293793 96.95284256 47.17828369 98.05245972 C47.10618553 109.60883411 46.25717612 120.55630945 42.75 131.625 C42.53569336 132.31255371 42.32138672 133.00010742 42.10058594 133.70849609 C32.7120738 162.87848032 12.99153719 187.392098 -14.1171875 201.90844727 C-41.42110136 215.90236713 -73.21046687 218.23468229 -102.59375 209.80859375 C-114.30074016 206.01883091 -122.89540843 200.7935634 -133.25 193.625 C-133.25 225.965 -133.25 258.305 -133.25 291.625 C-154.04 291.625 -174.83 291.625 -196.25 291.625 C-196.25 189.985 -196.25 88.345 -196.25 -16.375 C-176.78 -16.375 -157.31 -16.375 -137.25 -16.375 C-136.92 -9.775 -136.59 -3.175 -136.25 3.625 C-134.93 2.325625 -133.61 1.02625 -132.25 -0.3125 C-96.2922821 -32.51722619 -37.13409257 -27.19003415 0 0 Z M-120.25 54.81640625 C-132.43978282 69.50194201 -134.81764358 88.16451797 -133.25 106.625 C-131.2025705 122.32537191 -123.98852751 136.88943205 -111.49609375 146.8125 C-97.92309185 156.4392445 -82.46633551 159.4952322 -66.08984375 157.34082031 C-51.55387477 154.8072145 -39.61707888 148.13672994 -30.25 136.625 C-18.5373058 119.88678994 -16.28346713 101.7473191 -18.72265625 81.75 C-21.97866747 65.52843511 -31.54951946 51.7722657 -45.25 42.625 C-70.68103367 27.89571353 -100.83473289 33.54303741 -120.25 54.81640625 Z " fill="#002E51" transform="translate(1826.25,150.375)"/>
<path d="M0 0 C0.88631104 0.40943848 0.88631104 0.40943848 1.79052734 0.82714844 C21.40720493 10.06152722 36.27895031 24.44462267 44 45 C46.70135281 53.2104109 48.12710406 61.21336354 48.12025452 69.8780365 C48.12153615 70.8609352 48.12153615 70.8609352 48.12284368 71.86369044 C48.12447878 74.03928254 48.11900969 76.21479596 48.11352539 78.39038086 C48.11324307 79.9578959 48.11340214 81.52541107 48.1139679 83.09292603 C48.11425411 87.33412345 48.10838586 91.57529243 48.10139394 95.81648326 C48.09513106 100.25408327 48.09455428 104.69168397 48.09336853 109.12928772 C48.09026386 117.52618672 48.08206213 125.92307265 48.07201904 134.3199659 C48.06083105 143.88221778 48.05534069 153.4444703 48.05032361 163.0067271 C48.03987879 182.6711603 48.02154406 202.33557561 48 222 C28.53 222 9.06 222 -11 222 C-11.33 215.73 -11.66 209.46 -12 203 C-13.36125 204.155 -14.7225 205.31 -16.125 206.5 C-38.27159989 224.09891552 -65.01104609 229.07688122 -92.75 226.25 C-114.10207989 223.79397834 -133.06414798 216.59373248 -146.89453125 199.68359375 C-157.82689811 184.21221888 -160.07196967 166.23218199 -157.71142578 147.73925781 C-154.62456659 130.39483827 -145.10039082 116.99255338 -131 107 C-119.19327727 99.33573378 -106.72423831 94.17082067 -93.02172852 91.00292969 C-92.28937013 90.83252544 -91.55701174 90.6621212 -90.80246067 90.48655319 C-83.07449341 88.72901145 -75.29114903 87.43231217 -67.46484375 86.203125 C-65.96447729 85.9627599 -64.46419922 85.7218425 -62.96400452 85.48040771 C-59.08035375 84.85686508 -55.19557689 84.24065531 -51.31048584 83.62615967 C-47.32019121 82.99362833 -43.33105064 82.35390071 -39.34179688 81.71484375 C-31.56228708 80.46966201 -23.78156813 79.23225287 -16 78 C-15.98106409 76.39490237 -15.96753326 74.78974033 -15.95629883 73.18457031 C-15.9481868 72.29070618 -15.94007477 71.39684204 -15.93171692 70.47589111 C-16.12690376 63.39856901 -19.98612373 56.79103732 -25 52 C-36.05458154 44.18362922 -49.00884797 42.43013567 -62.20703125 44.50390625 C-75.69636168 47.53424364 -86.33303163 53.93973794 -93.875 65.6875 C-94.93089983 67.44988353 -95.97324956 69.22047656 -97 71 C-97.99830813 72.66768062 -98.99779454 74.33465859 -100 76 C-104.33233016 74.64729103 -108.32589148 72.97957008 -112.40234375 70.98828125 C-112.99784027 70.69887161 -113.59333679 70.40946198 -114.20687866 70.11128235 C-115.46995885 69.49701627 -116.73225326 68.8811321 -117.99380493 68.26373291 C-121.24501282 66.67261093 -124.50177793 65.09293321 -127.7578125 63.51171875 C-128.39078751 63.20391479 -129.02376251 62.89611084 -129.67591858 62.57897949 C-136.41377776 59.30554708 -143.19315621 56.12715103 -150 53 C-148.66099088 42.4903354 -142.72090525 33.91308357 -136 26 C-135.49082031 25.34644531 -134.98164062 24.69289062 -134.45703125 24.01953125 C-125.29799102 12.68945926 -113.04896636 5.90172452 -100 0 C-99.12859375 -0.40992188 -98.2571875 -0.81984375 -97.359375 -1.2421875 C-68.65046674 -13.83895337 -28.30274477 -13.18210031 0 0 Z M-23.86938477 125.76269531 C-24.83461563 125.92997131 -25.7998465 126.09724731 -26.79432678 126.26959229 C-27.83286301 126.45390808 -28.87139923 126.63822388 -29.94140625 126.828125 C-31.0194603 127.01840271 -32.09751434 127.20868042 -33.20823669 127.40472412 C-35.49244292 127.80969326 -37.77629446 128.21666739 -40.05981445 128.62548828 C-43.52328422 129.24300802 -46.98903745 129.84632173 -50.45507812 130.44921875 C-52.67984428 130.84547493 -54.90445875 131.24258391 -57.12890625 131.640625 C-58.66545616 131.90495331 -58.66545616 131.90495331 -60.23304749 132.17462158 C-69.84068237 133.92512598 -83.06313706 136.49884037 -89.34375 144.76953125 C-93.09790974 151.13819509 -93.68409078 156.76251787 -93 164 C-91.41900676 169.90103208 -88.04775499 173.25689011 -83.1953125 176.7734375 C-74.10874476 181.85027428 -62.2017027 181.12758231 -52.21875 179.3125 C-39.70747143 175.73784898 -28.83927251 168.89614121 -21.953125 157.66015625 C-16.07467782 146.84938937 -14.62199008 137.22232059 -15 125 C-18.1821993 125 -20.77207603 125.22162885 -23.86938477 125.76269531 Z " fill="#002E51" transform="translate(1537,138)"/>
<path d="M0 0 C3.49740001 2.84612464 6.78467297 5.83991914 10 9 C10.62648438 9.61359375 11.25296875 10.2271875 11.8984375 10.859375 C28.53604849 28.47566898 32.34961367 52.38445185 32.22705078 75.7043457 C32.22648515 77.23333733 32.22680618 78.76232949 32.22793579 80.2913208 C32.22850439 84.39997294 32.2168309 88.50850584 32.20278788 92.61713052 C32.19019739 96.926566 32.18910351 101.23600489 32.18673706 105.54545593 C32.18054655 113.68717994 32.16416896 121.82884958 32.14403808 129.97054976 C32.12160303 139.24757154 32.11066661 148.52459605 32.10064721 157.80163825 C32.0798003 176.86779582 32.0431548 195.93387896 32 215 C11.21 215 -9.58 215 -31 215 C-31.04898437 205.23792969 -31.09796875 195.47585938 -31.1484375 185.41796875 C-31.18383297 179.22460064 -31.21971876 173.03124176 -31.2578125 166.83789062 C-31.31815331 157.01279831 -31.3765221 147.18772329 -31.421875 137.36254883 C-31.45491966 130.20580873 -31.49481882 123.04914447 -31.54279006 115.8924883 C-31.56793166 112.1066199 -31.58974862 108.32080099 -31.60334396 104.53487206 C-31.61627729 100.96355353 -31.63845007 97.39240585 -31.66738319 93.82118225 C-31.68062254 91.90176203 -31.68435854 89.98228341 -31.68769836 88.06282043 C-31.82272508 73.93708882 -33.93977089 61.49210933 -43.85546875 50.8203125 C-52.71318589 43.30174021 -63.7906364 40.50740846 -75.16796875 40.74609375 C-85.08071791 41.63482299 -96.18379915 45.4264435 -103 53 C-110.64944649 63.6605978 -112.44662859 73.07499034 -112.41650391 86.04101562 C-112.42389581 87.43972496 -112.43260446 88.83842786 -112.44252014 90.23712158 C-112.46570645 94.00929687 -112.47098438 97.78130728 -112.47317934 101.553545 C-112.47886328 105.50625181 -112.50214834 109.45885297 -112.52377319 113.41149902 C-112.56219762 120.88630434 -112.58648235 128.36107916 -112.60489786 135.835958 C-112.63840149 149.24712699 -112.69595513 162.65820526 -112.75888956 176.06926489 C-112.780414 180.77646051 -112.7956638 185.48362421 -112.80572915 190.19085789 C-112.81272395 193.10809413 -112.82359954 196.02530729 -112.83537102 198.94252777 C-112.84213536 200.94969336 -112.84384676 202.95687395 -112.84544373 204.96405029 C-112.85089706 206.14722839 -112.8563504 207.33040649 -112.86196899 208.54943848 C-112.86452509 209.58398415 -112.86708118 210.61852982 -112.86971474 211.68442535 C-113 214 -113 214 -114 215 C-134.79 215 -155.58 215 -177 215 C-177 140.42 -177 65.84 -177 -11 C-157.53 -11 -138.06 -11 -118 -11 C-117.505 0.88 -117.505 0.88 -117 13 C-115.02 10.36 -113.04 7.72 -111 5 C-84.82877141 -25.60179091 -30.32363033 -22.18693773 0 0 Z " fill="#002E51" transform="translate(1141,145)"/>
<path d="M0 0 C20.79 0 41.58 0 63 0 C63 17.16 63 34.32 63 52 C80.49 52 97.98 52 116 52 C116 69.82 116 87.64 116 106 C98.51 106 81.02 106 63 106 C63.09090671 122.28528793 63.09090671 122.28528793 63.20898438 138.5703125 C63.26320361 145.21742595 63.31431784 151.86445697 63.34643555 158.51171875 C63.37254549 163.87406339 63.4130022 169.23612946 63.46318626 174.59830093 C63.47980305 176.6386581 63.4913495 178.67906339 63.49761391 180.71947861 C63.5073116 183.58915803 63.53543805 186.45813303 63.56762695 189.32763672 C63.56619186 190.16130264 63.56475677 190.99496857 63.5632782 191.85389709 C63.72152572 201.90375886 66.46065738 210.3499417 73.5625 217.625 C85.57265056 226.84070959 101.89454294 225.28231428 116 224 C116 241.82 116 259.64 116 278 C105.94519353 279.25685081 96.58775317 280.36450976 86.5625 280.3125 C85.39871826 280.30686035 84.23493652 280.3012207 83.03588867 280.29541016 C59.66824154 279.96804593 38.70489989 273.67321196 21.3515625 257.44921875 C1.78907387 237.07433441 -0.32388073 212.0428932 -0.1953125 185.296875 C-0.19157668 183.00474166 -0.1887324 180.71260671 -0.18673706 178.42047119 C-0.17914543 172.42331438 -0.15953583 166.42625631 -0.1373291 160.42913818 C-0.11677383 154.29522029 -0.10771474 148.16128625 -0.09765625 142.02734375 C-0.0762853 130.01817907 -0.04114011 118.00911324 0 106 C-12.54 106 -25.08 106 -38 106 C-38 88.18 -38 70.36 -38 52 C-32.39 51.01 -26.78 50.02 -21 49 C-12.83599417 45.77028341 -7.66188831 42.46928178 -3.78515625 34.50390625 C0.50124757 23.01756434 -0.53321609 12.79718627 0 0 Z " fill="#002E51" transform="translate(1236,82)"/>
<path d="M0 0 C20.79 0 41.58 0 63 0 C63.02202676 28.64664856 63.04049809 57.29329056 63.05106533 85.93994549 C63.0523161 89.31844349 63.05361042 92.69694148 63.05493164 96.07543945 C63.05519395 96.74806547 63.05545626 97.42069148 63.05572652 98.1137001 C63.06008324 109.01882419 63.0679708 119.92394303 63.0771528 130.829064 C63.08648928 142.01054082 63.0919807 153.19201583 63.09408849 164.37349659 C63.09539602 170.65739874 63.09848453 176.94128896 63.10573006 183.2251873 C63.11248637 189.13231851 63.11461776 195.03943283 63.11310768 200.94656754 C63.11338419 203.12148823 63.1153916 205.29640946 63.11920547 207.47132683 C63.12413666 210.4268642 63.12300043 213.38233668 63.12025452 216.33787537 C63.12316736 217.21042589 63.1260802 218.08297642 63.12908131 218.98196787 C63.11412121 224.88587879 63.11412121 224.88587879 62 226 C41.54 226 21.08 226 0 226 C0 151.42 0 76.84 0 0 Z " fill="#002E51" transform="translate(857,134)"/>
<path d="M0 0 C2.13442877 1.63746797 4.17628014 3.33836175 6.20703125 5.1015625 C7.21765625 5.8646875 8.22828125 6.6278125 9.26953125 7.4140625 C22.79554061 19.78892212 33.34413301 39.13870339 34.34594727 57.67138672 C35.22287505 83.77237737 29.50541889 105.16900949 11.69293213 124.88421631 C8.89903337 127.76996717 6.0655673 130.60833103 3.20703125 133.4296875 C2.1608702 134.4727788 1.11530957 135.51647258 0.0703125 136.56072998 C-2.10352779 138.73000948 -4.28212381 140.89434346 -6.46484375 143.0546875 C-9.24185263 145.80334706 -12.01005055 148.56066977 -14.77514648 151.32130814 C-17.44461674 153.98559015 -20.11872195 156.64520153 -22.79296875 159.3046875 C-23.29103027 159.8008683 -23.7890918 160.2970491 -24.30224609 160.80826569 C-29.44534781 165.9262696 -34.61119269 170.95714537 -40.13671875 175.6630249 C-42.47863263 177.69709655 -44.6342815 179.87541627 -46.79296875 182.1015625 C-50.93910741 180.46388549 -53.73761319 177.45249709 -56.82739258 174.35766602 C-57.42145401 173.77032181 -58.01551544 173.1829776 -58.62757874 172.57783508 C-60.59039652 170.63401414 -62.54558461 168.68273542 -64.5 166.73046875 C-65.86742265 165.36947679 -67.23499389 164.00863412 -68.60270691 162.64793396 C-71.47187429 159.79074641 -74.33687192 156.92944944 -77.19946289 154.06567383 C-80.84733412 150.41760028 -84.50871436 146.78342908 -88.17390919 143.15277195 C-91.00603116 140.34302934 -93.82887226 137.5240985 -96.64929771 134.70261955 C-97.9939234 133.36033682 -99.34175357 132.02125551 -100.69297218 130.68560982 C-108.10933445 123.34670473 -114.72657098 116.33065893 -119.79296875 107.1015625 C-120.50771111 105.83482445 -120.50771111 105.83482445 -121.2368927 104.54249573 C-131.20518103 86.47936872 -132.35602368 64.19915254 -127.18359375 44.49609375 C-120.77559823 22.86671781 -105.4934834 4.81010198 -85.79296875 -5.8984375 C-58.05601671 -19.00774933 -25.49832229 -17.33172676 0 0 Z M-86.13671875 33.31640625 C-95.98549836 43.44423462 -99.97143426 55.07884172 -101.10546875 68.9140625 C-100.4813704 87.91005603 -91.06513707 101.14540516 -78.0078125 114.0546875 C-76.09550436 115.82197051 -74.14652172 117.51843144 -72.171875 119.21484375 C-67.14690628 123.5918238 -62.47960498 128.3056319 -57.79296875 133.0390625 C-56.92285156 133.91369141 -56.05273438 134.78832031 -55.15625 135.68945312 C-53.03283326 137.82453699 -50.91180497 139.96193455 -48.79296875 142.1015625 C-43.51948384 137.68310938 -38.55318214 133.04923527 -33.6640625 128.2109375 C-32.9113356 127.46628235 -32.1586087 126.7216272 -31.3830719 125.95440674 C-29.80087028 124.38595965 -28.22015863 122.81600822 -26.64086914 121.24462891 C-25.03660822 119.65190476 -23.42788639 118.06366103 -21.81469727 116.47998047 C-19.46280963 114.17101137 -17.12468552 111.84884489 -14.7890625 109.5234375 C-14.07640732 108.82829041 -13.36375214 108.13314331 -12.62950134 107.41693115 C-2.10592443 96.84792356 3.5437963 84.59197239 3.70703125 69.6640625 C3.53496387 55.19476038 -1.13440087 43.04426165 -11.04296875 32.3515625 C-33.23023868 11.74556794 -64.54402599 12.91131159 -86.13671875 33.31640625 Z " fill="#FA5004" transform="translate(289.79296875,300.8984375)"/>
<path d="M0 0 C1.92730886 1.64084583 3.8171463 3.32644154 5.67285156 5.04785156 C6.19002369 5.52756535 6.70719582 6.00727913 7.24003983 6.50152969 C12.17749684 11.10979081 16.97404476 15.85673882 21.72844696 20.65328217 C23.22448892 22.16245056 24.72395088 23.66815332 26.22418213 25.17315674 C29.40234809 28.36256553 32.5764832 31.55596607 35.75 34.75 C39.44931817 38.47311881 43.15037905 42.1944732 46.85569 45.91162872 C48.31774846 47.38006682 49.77671442 48.85152714 51.23553467 50.32318115 C56.32275053 55.42903442 61.4870749 60.35474372 67 65 C66.55790598 69.38862168 63.62116224 71.80106926 60.64501953 74.74316406 C59.80811333 75.5879557 59.80811333 75.5879557 58.95429993 76.44981384 C57.10462139 78.31270946 55.24416354 80.16439737 53.3828125 82.015625 C52.08736018 83.31309954 50.79235336 84.61101902 49.49777222 85.90936279 C46.77713436 88.63442798 44.05113603 91.35398527 41.32128906 94.06982422 C37.84704845 97.52709218 34.38629166 100.9974924 30.92956734 104.47226334 C28.25304344 107.15971624 25.56930497 109.83987369 22.88344955 112.51799774 C21.60640973 113.7930544 20.33154422 115.07029304 19.05902481 116.34986115 C-0.19312921 135.68510285 -20.55597245 148.23366824 -48.5 148.5 C-68.62047243 148.30823377 -86.70872945 142.37986173 -102 129 C-102.66 128.48179687 -103.32 127.96359375 -104 127.4296875 C-119.27835036 115.07570889 -128.11773759 95.60928012 -130.6875 76.4375 C-130.81129626 74.95984672 -130.91503826 73.48039394 -131 72 C-131.07927734 70.81083984 -131.07927734 70.81083984 -131.16015625 69.59765625 C-131.88655095 48.59537479 -124.38471563 28.55840067 -110.625 12.8125 C-109.10118526 11.191366 -107.55992915 9.58641352 -106 8 C-105.31292969 7.30003906 -104.62585938 6.60007813 -103.91796875 5.87890625 C-75.80625673 -20.87676772 -31.22438925 -21.42106526 0 0 Z M-86 33 C-95.26214868 44.65610868 -99.89827725 57.3500351 -98.74609375 72.29296875 C-96.87923587 86.63918287 -90.74157894 99.05271236 -79.40234375 108.37109375 C-65.50017286 117.79744377 -50.80594924 121.3724706 -34.2890625 118.3125 C-14.93832637 112.79685075 -2.09000663 97.23321897 11.625 83.4375 C13.12085893 81.93661488 14.61695089 80.43596199 16.11328125 78.93554688 C19.74487866 75.29303521 23.37331184 71.64739935 27 68 C22.780347 62.97329187 18.38989199 58.21758862 13.765625 53.5625 C13.08755798 52.87873291 12.40949097 52.19496582 11.71087646 51.49047852 C10.2835778 50.05379161 8.85486523 48.61850811 7.42480469 47.18457031 C5.26289433 45.01295223 3.11190989 42.83088274 0.9609375 40.6484375 C-12.61194318 26.97074277 -25.70576665 15.94405268 -45.8125 15.6875 C-61.07414231 15.77528122 -75.64851151 21.54975016 -86 33 Z " fill="#FA5004" transform="translate(419,174)"/>
<path d="M0 0 C3.8702548 1.58903992 6.30923305 4.06799691 9.23999023 7.01293945 C9.74948212 7.52213928 10.258974 8.03133911 10.78390503 8.55596924 C12.46358676 10.23704174 14.13607276 11.92508678 15.80859375 13.61328125 C16.97873352 14.78715474 18.14931829 15.96058479 19.32032776 17.1335907 C22.40199386 20.22288727 25.47761329 23.31813614 28.55200195 26.41467285 C31.66975223 29.55280982 34.79309623 32.6853679 37.91601562 35.81835938 C43.41968194 41.34115679 48.91839632 46.86884257 54.41355896 52.40010071 C56.18147666 54.17721757 57.95199514 55.9517499 59.7247467 57.7240448 C75.22708034 73.23116083 83.05779227 92.38830608 83.3125 114.25 C83.18316934 137.01219566 74.84954099 156.94459998 59.0625 173.375 C40.71613095 190.84504017 19.30729586 196.56996997 -5.38671875 196.26953125 C-23.59263925 195.74715643 -40.62818829 188.33300981 -54 176 C-55.37091797 174.76636719 -55.37091797 174.76636719 -56.76953125 173.5078125 C-66.78131912 164.05756129 -73.51179931 152.98858077 -78 140 C-78.3196875 139.07703125 -78.639375 138.1540625 -78.96875 137.203125 C-84.95202018 116.26167936 -81.3043202 93.98762613 -71.390625 75.01171875 C-64.27496269 62.69591056 -54.65672172 53.25362532 -44.60058594 43.31933594 C-41.99930798 40.7493163 -39.4089445 38.16868847 -36.8203125 35.5859375 C-35.15166374 33.92645758 -33.48241324 32.26758247 -31.8125 30.609375 C-30.66527466 29.46852448 -30.66527466 29.46852448 -29.49487305 28.30462646 C-25.35645417 24.22034982 -21.12802628 20.30193892 -16.72583008 16.50369263 C-14.71777726 14.7541031 -12.81217866 12.92657311 -10.9375 11.03515625 C-10.28652344 10.38095703 -9.63554687 9.72675781 -8.96484375 9.05273438 C-8.31644531 8.39595703 -7.66804688 7.73917969 -7 7.0625 C-6.32066406 6.37865234 -5.64132813 5.69480469 -4.94140625 4.99023438 C-3.29191641 3.32912841 -1.6448332 1.66571487 0 0 Z M1 40 C-4.24000159 45.12319926 -9.46571256 50.26054297 -14.67452335 55.41546249 C-17.09466865 57.80971844 -19.51914648 60.1991855 -21.95483398 62.57763672 C-24.76461378 65.32616202 -27.55739937 68.09104858 -30.34765625 70.859375 C-31.63870018 72.11170929 -31.63870018 72.11170929 -32.95582581 73.38934326 C-44.29951725 84.72781237 -50.18616519 96.95128323 -50.4375 112.9375 C-50.33517779 126.69983737 -45.21675426 139.64198223 -35.75 149.8125 C-24.5157936 160.07090673 -11.17421064 165.14714386 4 165 C16.72703462 164.09208415 27.49257587 159.42033494 37 151 C37.60328125 150.52433594 38.2065625 150.04867187 38.828125 149.55859375 C47.28619657 142.26255454 53.126563 129.01290134 54 118 C54.07992187 117.25234375 54.15984375 116.5046875 54.2421875 115.734375 C55.09309193 100.61830805 48.90223799 87.66819585 39.25 76.5 C34.42736094 71.3275322 29.42331906 66.32707234 24.4375 61.3125 C23.6340918 60.50425781 22.83068359 59.69601563 22.00292969 58.86328125 C15.30533787 52.18491171 8.26659234 46.04297497 1 40 Z " fill="#FA5004" transform="translate(243,0)"/>
<path d="M0 0 C17.97277866 14.26545042 27.90103645 33.60273956 30.83544922 56.12060547 C33.06109001 75.76846664 27.32594151 95.98002943 16.0625 112.125 C12.6596618 116.38085498 8.90965037 120.27224154 5.0625 124.125 C4.40507812 124.79402344 3.74765625 125.46304688 3.0703125 126.15234375 C-12.56282897 140.94679737 -34.34119346 146.84891325 -55.37109375 146.375 C-85.63324705 145.10321377 -105.02489704 127.22814013 -125.140625 107.01953125 C-126.35636652 105.80191838 -127.57233366 104.58453074 -128.78851318 103.36735535 C-131.94704233 100.20505736 -135.1025538 97.03976567 -138.25738525 93.8737793 C-141.49394475 90.62688262 -144.73343359 87.3829113 -147.97265625 84.13867188 C-154.29709525 77.80359528 -160.61834112 71.46534315 -166.9375 65.125 C-165.34113578 61.18929428 -162.62688861 58.5252728 -159.66845703 55.58129883 C-159.13148697 55.03921783 -158.59451691 54.49713684 -158.04127502 53.93862915 C-156.26443444 52.14789303 -154.48026375 50.36468057 -152.6953125 48.58203125 C-151.44874526 47.33157324 -150.20240069 46.08089321 -148.95626831 44.83000183 C-146.33850707 42.20477563 -143.71690036 39.58346219 -141.09277344 36.96459961 C-137.7582211 33.6358012 -134.43508143 30.29587178 -131.11508369 26.95256519 C-128.53957591 24.36218732 -125.95702599 21.77891703 -123.37252426 19.19751549 C-122.14639794 17.97088123 -120.92258387 16.74193052 -119.70129776 15.51047707 C-86.69722223 -17.7342378 -40.12464046 -30.4044552 0 0 Z M-111.5625 47.6875 C-113.05835893 49.18838512 -114.55445089 50.68903801 -116.05078125 52.18945312 C-119.68237866 55.83196479 -123.31081184 59.47760065 -126.9375 63.125 C-122.717847 68.15170813 -118.32739199 72.90741138 -113.703125 77.5625 C-113.02505798 78.24626709 -112.34699097 78.93003418 -111.64837646 79.63452148 C-110.2210778 81.07120839 -108.79236523 82.50649189 -107.36230469 83.94042969 C-105.20039433 86.11204777 -103.04940989 88.29411726 -100.8984375 90.4765625 C-86.99201272 104.49027584 -74.05453977 114.95851996 -53.625 115.4375 C-38.94667339 115.18821773 -26.74106461 110.42361357 -16.00390625 100.3203125 C-6.42989972 90.1490617 -1.04782501 77.75297576 -0.90234375 63.73828125 C-1.57895792 48.73725005 -6.86291592 35.0709847 -18 24.6796875 C-53.87954349 -4.11075264 -85.13299189 21.10245514 -111.5625 47.6875 Z " fill="#FA5004" transform="translate(166.9375,177.875)"/>
<path d="M0 0 C20.79 0 41.58 0 63 0 C63 20.46 63 40.92 63 62 C42.21 62 21.42 62 0 62 C0 41.54 0 21.08 0 0 Z " fill="#002E51" transform="translate(857,52)"/>
<path d="M0 0 C5.960625 -0.061875 11.92125 -0.12375 18.0625 -0.1875 C19.93043213 -0.21481201 21.79836426 -0.24212402 23.72290039 -0.27026367 C25.22281246 -0.27903509 26.72273173 -0.28667747 28.22265625 -0.29296875 C28.98574097 -0.30831665 29.74882568 -0.32366455 30.53503418 -0.33947754 C37.93641462 -0.34305366 43.51010817 1.82381627 49 7 C51.5446356 11.24105933 51.67187393 15.17090614 51 20 C48.56977078 24.95392879 45.61467005 27.27314951 41 30 C41.53109375 30.30292969 42.0621875 30.60585937 42.609375 30.91796875 C52.05434247 36.51945493 52.05434247 36.51945493 53.5625 42.0703125 C54.44561193 47.49777121 53.80167586 51.14376184 51 56 C47.11862526 60.7685461 41.98850759 64.3621337 35.82080078 65.34851074 C33.50576038 65.45875683 31.2229867 65.45144054 28.90625 65.390625 C28.16729492 65.38659668 27.42833984 65.38256836 26.66699219 65.37841797 C23.94440364 65.357716 21.22217306 65.30187277 18.5 65.25 C9.3425 65.12625 9.3425 65.12625 0 65 C0 43.55 0 22.1 0 0 Z " fill="#033052" transform="translate(2021,110)"/>
<path d="M0 0 C8.25 0 16.5 0 25 0 C26.99674673 5.32465795 28.92263623 10.62989043 30.70703125 16.0234375 C30.95490891 16.76848541 31.20278656 17.51353333 31.45817566 18.28115845 C32.24437821 20.64530068 33.02849611 23.01012785 33.8125 25.375 C34.58284076 27.69356748 35.35360687 30.01199317 36.1244812 32.3303833 C36.6369477 33.87304292 37.1486084 35.41597046 37.65945435 36.95916748 C38.99849791 41.00207865 40.35079236 45.0398829 41.72412109 49.07128906 C42.00269455 49.89351959 42.28126801 50.71575012 42.56828308 51.56289673 C43.10227474 53.13770272 43.63980246 54.7113154 44.18135071 56.28353882 C45.20385092 59.30828706 46 61.7837171 46 65 C39.73 65 33.46 65 27 65 C24 56 24 56 24 53 C16.41 53 8.82 53 1 53 C0.67 55.64 0.34 58.28 0 61 C-0.66 62.32 -1.32 63.64 -2 65 C-8.27 65 -14.54 65 -21 65 C-18.8359879 55.68210595 -16.0340566 46.69955839 -12.97631836 37.64770508 C-12.19510486 35.33501332 -11.42018899 33.02029145 -10.64648438 30.70507812 C-7.20397514 20.43151209 -3.62735775 10.20973789 0 0 Z " fill="#033053" transform="translate(2204,110)"/>
<path d="M0 0 C15.51 0 31.02 0 47 0 C47 4.95 47 9.9 47 15 C37.43 15 27.86 15 18 15 C18 18.63 18 22.26 18 26 C26.91 26 35.82 26 45 26 C45 30.62 45 35.24 45 40 C36.09 40 27.18 40 18 40 C18 43.96 18 47.92 18 52 C27.57 52 37.14 52 47 52 C47 56.62 47 61.24 47 66 C31.49 66 15.98 66 0 66 C0 44.22 0 22.44 0 0 Z " fill="#043153" transform="translate(2079,109)"/>
<path d="M0 0 C0.99261337 0.00222061 1.98522675 0.00444122 3.00791931 0.00672913 C4.12900589 0.00680466 5.25009247 0.00688019 6.40515137 0.00695801 C8.2348069 0.01469994 8.2348069 0.01469994 10.10142517 0.02259827 C11.96377052 0.02472069 11.96377052 0.02472069 13.86373901 0.02688599 C17.16982383 0.03154861 20.47584039 0.04053955 23.78190613 0.05158997 C27.15338042 0.06180625 30.52486175 0.06638407 33.89634705 0.07142639 C40.5155091 0.08248057 47.13462964 0.09975792 53.75376892 0.12025452 C53.75376892 5.07025452 53.75376892 10.02025452 53.75376892 15.12025452 C47.48376892 15.12025452 41.21376892 15.12025452 34.75376892 15.12025452 C34.75376892 31.95025452 34.75376892 48.78025452 34.75376892 66.12025452 C28.81376892 66.12025452 22.87376892 66.12025452 16.75376892 66.12025452 C16.75376892 49.29025452 16.75376892 32.46025452 16.75376892 15.12025452 C10.15376892 15.12025452 3.55376892 15.12025452 -3.24623108 15.12025452 C-3.34388733 4.28041077 -3.34388733 4.28041077 -3.24623108 1.12025452 C-2.24623108 0.12025452 -2.24623108 0.12025452 0 0 Z " fill="#083456" transform="translate(2134.2462310791016,108.87974548339844)"/>
<path d="M0 0 C10.97708082 -0.48250905 10.97708082 -0.48250905 15.3125 1.5625 C17 4 17 4 17.125 7.5625 C16 11 16 11 14.125 12.9375 C9.3624775 14.55675765 5.01568944 14.18128998 0 14 C0 9.38 0 4.76 0 0 Z " fill="#E5E1DF" transform="translate(2039,147)"/>
<path d="M0 0 C11.45790554 -0.36960986 11.45790554 -0.36960986 13.890625 1.2890625 C15 3 15 3 14.9375 6.5625 C14 10 14 10 12.26953125 11.20703125 C9.62459115 12.13116695 7.54486365 12.19854904 4.75 12.125 C3.1825 12.08375 1.615 12.0425 0 12 C0 8.04 0 4.08 0 0 Z " fill="#E6E3E0" transform="translate(2039,124)"/>
<path d="M0 0 C2 1 2 1 3.2890625 4.7109375 C3.74249478 6.26327626 4.18744322 7.81811192 4.625 9.375 C4.85445312 10.15617188 5.08390625 10.93734375 5.3203125 11.7421875 C6.24963105 14.9726758 7 17.61562918 7 21 C2.71 21 -1.58 21 -6 21 C-4.55613874 13.78069368 -2.42211826 6.94889267 0 0 Z " fill="#DDDBDA" transform="translate(2216,128)"/>
</svg>
